<svg xmlns="http://www.w3.org/2000/svg" width="512" height="512" viewBox="0 0 512 512"><path d="M243.391 166.834l215.748-42.766-.145-.727L444.558 50.5l-363.4 72.035C63.07 126.12 50 141.985 50 160.424v242.407c0 32.351 26.318 58.669 58.668 58.669h294.664c32.35 0 58.668-26.318 58.668-58.669V166.834H243.391zM422 402.831c0 10.294-8.374 18.669-18.668 18.669H108.668C98.374 421.5 90 413.125 90 402.831V261.765h332v141.066zm-82.472-215.997l-34.931 34.931h-52.426l34.931-34.931h52.426zm55.697-106.166l41.139 27.529-51.396 10.214-41.17-27.55 51.427-10.193zm-101.244 20.068l41.199 27.568-51.394 10.213-41.229-27.588 51.424-10.193zm-101.356 20.091l41.257 27.608-51.395 10.213-41.287-27.627 51.425-10.194zm-8.855 66.007h52.426l-34.931 34.931h-52.426l34.931-34.931zm171.615 34.931l34.931-34.931h52.426l-34.931 34.931h-52.426zM232.923 393.31V284.553l88.693 54.38-88.693 54.377z"/></svg>