<svg xmlns="http://www.w3.org/2000/svg" width="512" height="512" viewBox="0 0 512 512"><path d="M243.39 166.834l215.75-42.766-.146-.727-14.436-72.84-363.4 72.035C63.07 126.12 50 141.985 50 160.425V402.83c0 32.352 26.318 58.67 58.668 58.67h294.664c32.35 0 58.668-26.318 58.668-58.67V166.836H243.39zM422 402.83c0 10.295-8.374 18.67-18.668 18.67H108.668C98.374 421.5 90 413.125 90 402.83V261.766h332V402.83zm-82.472-215.996l-34.93 34.93H252.17l34.932-34.93h52.426zm55.697-106.166l41.14 27.53-51.397 10.213-41.17-27.55 51.427-10.192zM293.98 100.736l41.2 27.568-51.394 10.213-41.23-27.588 51.425-10.194zm-101.355 20.09l41.257 27.61-51.395 10.212L141.2 131.02l51.425-10.193zm-8.855 66.008h52.426l-34.93 34.93h-52.427l34.93-34.93zm171.615 34.93l34.93-34.93h52.427l-34.93 34.93h-52.427zM232.923 393.31V284.553l88.693 54.38-88.693 54.377z"/></svg>